HIERARCHY
ROOT Root
{
	OFFSET 0.0000 0.0000 0.0000
	CHANNELS 6 Xposition Yposition Zposition Zrotation Xrotation Yrotation
	JOINT Spine01
	{
		OFFSET 0.0000 -16.7008 118.8322
		CHANNELS 6 Xposition Yposition Zposition Zrotation Xrotation Yrotation
		JOINT Spine02
		{
			OFFSET 0.0000 11.8586 169.5859
			CHANNELS 6 Xposition Yposition Zposition Zrotation Xrotation Yrotation
			JOINT LeftShoulder
			{
				OFFSET 83.0000 21.5583 44.2746
				CHANNELS 6 Xposition Yposition Zposition Zrotation Xrotation Yrotation
				JOINT LeftArm
				{
					OFFSET 0.0000 -111.4369 141.3570
					CHANNELS 6 Xposition Yposition Zposition Zrotation Xrotation Yrotation
					JOINT LeftForeArm
					{
						OFFSET 0.0000 -172.4081 -79.8464
						CHANNELS 6 Xposition Yposition Zposition Zrotation Xrotation Yrotation
						JOINT LeftWrist
						{
							OFFSET 0.0000 -209.8784 7.1457
							CHANNELS 6 Xposition Yposition Zposition Zrotation Xrotation Yrotation
							JOINT LeftHand
							{
								OFFSET 0.0000 -64.9257 26.1658
								CHANNELS 6 Xposition Yposition Zposition Zrotation Xrotation Yrotation
								End Site
								{
									OFFSET 0.0000 -20.5704 56.3636
								}
							}
						}
					}
				}
			}
			JOINT RightShoulder
			{
				OFFSET -83.0000 21.5583 44.2746
				CHANNELS 6 Xposition Yposition Zposition Zrotation Xrotation Yrotation
				JOINT RightArm
				{
					OFFSET 0.0000 -111.4369 141.3570
					CHANNELS 6 Xposition Yposition Zposition Zrotation Xrotation Yrotation
					JOINT RightForeArm
					{
						OFFSET 0.0000 -172.4081 -79.8464
						CHANNELS 6 Xposition Yposition Zposition Zrotation Xrotation Yrotation
						JOINT RightWrist
						{
							OFFSET 0.0000 -209.8784 7.1457
							CHANNELS 6 Xposition Yposition Zposition Zrotation Xrotation Yrotation
							JOINT RightHand
							{
								OFFSET 0.0000 -64.9257 26.1658
								CHANNELS 6 Xposition Yposition Zposition Zrotation Xrotation Yrotation
								End Site
								{
									OFFSET 0.0000 -20.5704 56.3636
								}
							}
						}
					}
				}
			}
			JOINT Neck01
			{
				OFFSET 0.0000 4.1879 119.9269
				CHANNELS 6 Xposition Yposition Zposition Zrotation Xrotation Yrotation
				JOINT Neck02
				{
					OFFSET 0.0000 -14.3102 88.8550
					CHANNELS 6 Xposition Yposition Zposition Zrotation Xrotation Yrotation
					JOINT Neck03
					{
						OFFSET 0.0000 72.0997 53.8668
						CHANNELS 6 Xposition Yposition Zposition Zrotation Xrotation Yrotation
						JOINT Neck04
						{
							OFFSET 0.0000 88.9597 -13.6445
							CHANNELS 6 Xposition Yposition Zposition Zrotation Xrotation Yrotation
							JOINT Head
							{
								OFFSET 0.0000 19.3735 72.4546
								CHANNELS 6 Xposition Yposition Zposition Zrotation Xrotation Yrotation
								End Site
								{
									OFFSET 0.0000 -28.2512 167.6361
								}
								JOINT LeftEar
								{
									OFFSET 45.0000 62.4894 -9.7509
									CHANNELS 6 Xposition Yposition Zposition Zrotation Xrotation Yrotation
									End Site
									{
										OFFSET 23.1256 59.6428 28.4242
									}
								}
								JOINT RightEar
								{
									OFFSET -45.0000 62.4894 -9.7509
									CHANNELS 6 Xposition Yposition Zposition Zrotation Xrotation Yrotation
									End Site
									{
										OFFSET -23.1256 59.6428 28.4242
									}
								}
							}
						}
					}
				}
			}
		}
	}
	JOINT LeftLeg
	{
		OFFSET 75.0000 -65.3041 -110.1607
		CHANNELS 6 Xposition Yposition Zposition Zrotation Xrotation Yrotation
		JOINT LeftLowerLeg
		{
			OFFSET 0.0000 -209.4885 14.6489
			CHANNELS 6 Xposition Yposition Zposition Zrotation Xrotation Yrotation
			JOINT LeftAnkle
			{
				OFFSET 0.0000 -168.5298 -141.4133
				CHANNELS 6 Xposition Yposition Zposition Zrotation Xrotation Yrotation
				JOINT LeftFoot
				{
					OFFSET 0.0000 -96.5926 25.8819
					CHANNELS 6 Xposition Yposition Zposition Zrotation Xrotation Yrotation
					End Site
					{
						OFFSET 0.0000 -19.5341 56.7311
					}
				}
			}
		}
	}
	JOINT RightLeg
	{
		OFFSET -75.0000 -65.3041 -110.1607
		CHANNELS 6 Xposition Yposition Zposition Zrotation Xrotation Yrotation
		JOINT RightLowerLeg
		{
			OFFSET 0.0000 -209.4885 14.6489
			CHANNELS 6 Xposition Yposition Zposition Zrotation Xrotation Yrotation
			JOINT RightAnkle
			{
				OFFSET 0.0000 -168.5298 -141.4133
				CHANNELS 6 Xposition Yposition Zposition Zrotation Xrotation Yrotation
				JOINT RightFoot
				{
					OFFSET 0.0000 -96.5926 25.8819
					CHANNELS 6 Xposition Yposition Zposition Zrotation Xrotation Yrotation
					End Site
					{
						OFFSET 0.0000 -19.5341 56.7311
					}
				}
			}
		}
	}
	JOINT TailBase
	{
		OFFSET 0.0000 -22.9100 -124.3991
		CHANNELS 6 Xposition Yposition Zposition Zrotation Xrotation Yrotation
		JOINT Tail1
		{
			OFFSET 0.0000 0.0000 -67.0000
			CHANNELS 6 Xposition Yposition Zposition Zrotation Xrotation Yrotation
			JOINT Tail2
			{
				OFFSET 0.0000 0.0000 -67.0000
				CHANNELS 6 Xposition Yposition Zposition Zrotation Xrotation Yrotation
				JOINT Tail3
				{
					OFFSET 0.0000 0.0000 -67.0000
					CHANNELS 6 Xposition Yposition Zposition Zrotation Xrotation Yrotation
					JOINT Tail4
					{
						OFFSET 0.0000 0.0000 -67.0000
						CHANNELS 6 Xposition Yposition Zposition Zrotation Xrotation Yrotation
						JOINT Tail5
						{
							OFFSET 0.0000 0.0000 -67.0000
							CHANNELS 6 Xposition Yposition Zposition Zrotation Xrotation Yrotation
							JOINT Tail6
							{
								OFFSET 0.0000 0.0000 -67.0000
								CHANNELS 6 Xposition Yposition Zposition Zrotation Xrotation Yrotation
								End Site
								{
									OFFSET 0.0000 0.0000 -67.0000
								}
							}
						}
					}
				}
			}
		}
	}
}
MOTION
Frames: 7
Frame Time: 0.008342
0.0000 0.0000 0.0000 0.0000 0.0000 0.0000 0.0000 -16.7008 118.8322 0.0000 0.0000 0.0000 0.0000 11.8586 169.5859 0.0000 0.0000 0.0000 83.0000 21.5583 44.2746 0.0000 0.0000 0.0000 0.0000 -111.4369 141.3570 0.0000 0.0000 0.0000 0.0000 -172.4081 -79.8464 0.0000 0.0000 0.0000 0.0000 -209.8784 7.1457 0.0000 0.0000 0.0000 0.0000 -64.9257 26.1658 0.0000 0.0000 0.0000 -83.0000 21.5583 44.2746 0.0000 0.0000 0.0000 0.0000 -111.4369 141.3570 0.0000 0.0000 0.0000 0.0000 -172.4081 -79.8464 0.0000 0.0000 0.0000 0.0000 -209.8784 7.1457 0.0000 0.0000 0.0000 0.0000 -64.9257 26.1658 0.0000 0.0000 0.0000 0.0000 4.1879 119.9269 0.0000 0.0000 0.0000 0.0000 -14.3102 88.8550 0.0000 0.0000 0.0000 0.0000 72.0997 53.8668 0.0000 0.0000 0.0000 0.0000 88.9597 -13.6445 0.0000 0.0000 0.0000 0.0000 19.3735 72.4546 0.0000 0.0000 0.0000 45.0000 62.4894 -9.7509 0.0000 0.0000 0.0000 -45.0000 62.4894 -9.7509 0.0000 0.0000 0.0000 75.0000 -65.3041 -110.1607 0.0000 0.0000 0.0000 0.0000 -209.4885 14.6489 0.0000 0.0000 0.0000 0.0000 -168.5298 -141.4133 0.0000 0.0000 0.0000 0.0000 -96.5926 25.8819 0.0000 0.0000 0.0000 -75.0000 -65.3041 -110.1607 0.0000 0.0000 0.0000 0.0000 -209.4885 14.6489 0.0000 0.0000 0.0000 0.0000 -168.5298 -141.4133 0.0000 0.0000 0.0000 0.0000 -96.5926 25.8819 0.0000 0.0000 0.0000 0.0000 -22.9100 -124.3991 0.0000 0.0000 0.0000 0.0000 0.0000 -67.0000 0.0000 0.0000 0.0000 0.0000 0.0000 -67.0000 0.0000 0.0000 0.0000 0.0000 0.0000 -67.0000 0.0000 0.0000 0.0000 0.0000 0.0000 -67.0000 0.0000 0.0000 0.0000 0.0000 0.0000 -67.0000 0.0000 0.0000 0.0000 0.0000 0.0000 -67.0000 0.0000 0.0000 0.0000 
-2594.5500 567.3800 294.1570 2.8699 5.6888 171.8145 0.0000 -16.7008 118.8322 0.7013 12.5240 -10.7503 0.0000 11.8586 169.5859 2.3811 8.8873 -13.7158 53.5232 19.9090 34.3383 8.8351 -6.2657 5.7905 0.0000 -111.4369 141.3570 21.8476 -0.7478 1.7661 0.0000 -172.4081 -79.8464 0.4837 -9.6000 -14.0697 -0.0000 -209.8784 7.1457 4.2444 18.8742 0.1544 0.0000 -64.9257 26.1658 -7.9002 -8.2199 1.7359 -66.9128 18.9607 56.5756 -9.3911 -5.3662 -10.2258 -0.0000 -111.4369 141.3570 5.1636 3.5660 -5.0237 -0.0000 -172.4081 -79.8464 0.6160 -16.4113 -17.4587 -0.0000 -209.8784 7.1457 1.5506 -6.6267 0.0529 0.0000 -64.9257 26.1658 3.0737 11.8142 -1.7290 -0.0000 4.1879 119.9269 4.7043 -4.7476 -23.1759 0.0000 -14.3102 88.8550 17.1111 16.3508 -0.5789 0.0000 72.0997 53.8668 -1.7190 -6.6718 -3.2425 -0.0000 88.9597 -13.6445 -4.6262 4.0803 -23.2972 0.0000 19.3735 72.4546 12.9810 -22.1687 -8.9090 59.0798 63.7539 -4.8536 -15.5568 9.9049 1.4312 -40.5125 75.8315 -0.9142 9.4802 13.7890 7.6746 75.0000 -65.3041 -110.1607 9.9782 -4.2321 14.4809 0.0000 -209.4885 14.6489 -0.0000 -3.8736 -0.0000 0.0000 -168.5298 -141.4133 0.0000 -20.3677 0.0000 -0.0000 -96.5926 25.8819 -2.6644 27.2321 2.0361 -75.0000 -65.3041 -110.1607 -4.5729 -14.7149 -17.6619 -0.0000 -209.4885 14.6489 0.0000 16.5371 -0.0000 0.0000 -168.5298 -141.4133 -0.0000 -22.9518 0.0000 0.0000 -96.5926 25.8819 7.6602 41.0334 -7.0402 0.0000 -22.9100 -124.3991 2.2896 -27.7847 3.8729 0.0000 0.0000 -67.0000 -1.7452 -18.9758 -5.3530 0.0000 -0.0000 -67.0000 -1.7361 13.6765 7.3050 -0.0000 0.0000 -67.0000 -0.6212 4.5777 7.7366 -0.0000 -0.0000 -67.0000 -4.0317 16.9341 13.6032 -0.0000 0.0000 -67.0000 -12.8552 14.9682 41.4624 0.0000 0.0000 -67.0000 -5.7205 17.1906 18.7236 
-2590.8600 567.7090 295.7890 3.0556 5.9817 168.9429 0.0000 -16.7008 118.8322 0.8905 13.0685 -10.8672 -0.0000 11.8586 169.5859 2.5928 8.8045 -12.7936 51.9744 21.1361 34.8505 8.2008 -5.6071 6.8544 -0.0000 -111.4369 141.3570 23.3438 -2.2636 2.5802 -0.0000 -172.4081 -79.8464 0.4057 -8.1287 -11.8253 0.0000 -209.8784 7.1457 6.4777 20.7249 0.2384 -0.0000 -64.9257 26.1658 -9.8587 2.2640 4.0268 -68.5876 16.5376 56.8222 -7.3394 -4.6853 -10.6536 0.0000 -111.4369 141.3570 5.4556 4.1785 -3.1150 0.0000 -172.4081 -79.8464 0.5077 -16.8621 -14.2757 0.0000 -209.8784 7.1457 1.8819 -12.9204 0.0652 0.0000 -64.9257 26.1658 -0.5584 9.9148 0.2969 0.0000 4.1879 119.9269 5.1950 -5.3812 -22.6369 -0.0000 -14.3102 88.8550 16.0991 15.6424 0.4197 0.0000 72.0997 53.8668 -2.4086 -6.5692 -2.7472 -0.0000 88.9597 -13.6445 -4.7206 3.2877 -23.4775 -0.0000 19.3735 72.4546 12.4972 -21.1535 -8.1509 57.6206 64.9059 -4.1683 -15.7333 9.7929 1.5194 -40.6053 76.0930 0.4976 9.3219 13.6062 7.6558 75.0000 -65.3041 -110.1607 10.2490 -2.9378 15.0483 0.0000 -209.4885 14.6489 -0.0000 -3.2918 0.0000 -0.0000 -168.5298 -141.4133 -0.0000 -21.6578 -0.0000 0.0000 -96.5926 25.8819 -1.7418 28.3467 1.3552 -75.0000 -65.3041 -110.1607 -5.7451 -15.7587 -17.3820 -0.0000 -209.4885 14.6489 -0.0000 18.0603 -0.0000 0.0000 -168.5298 -141.4133 -0.0000 -25.9743 -0.0000 -0.0000 -96.5926 25.8819 8.8336 48.0216 -8.6277 0.0000 -22.9100 -124.3991 2.5594 -27.7738 4.3293 0.0000 -0.0000 -67.0000 -1.6049 -19.7079 -4.7495 0.0000 -0.0000 -67.0000 -1.8386 14.6375 7.2396 0.0000 0.0000 -67.0000 -0.7339 4.7383 8.8153 0.0000 -0.0000 -67.0000 -3.8670 16.9201 13.0753 0.0000 0.0000 -67.0000 -11.9823 13.8143 41.6320 0.0000 0.0000 -67.0000 -5.8031 16.7272 19.4489 
-2587.0400 567.8620 296.5680 3.5056 6.1957 165.9197 0.0000 -16.7008 118.8322 1.1031 13.7125 -10.9598 0.0000 11.8586 169.5859 2.8704 8.7761 -11.7388 49.9067 22.0269 35.2137 8.6537 -5.5186 7.5752 -0.0000 -111.4369 141.3570 23.5395 -2.3783 2.9260 0.0000 -172.4081 -79.8464 0.4157 -8.1608 -12.1184 0.0000 -209.8784 7.1457 8.2366 23.0621 0.3082 0.0000 -64.9257 26.1658 -14.0516 21.2642 10.0497 -69.4123 14.7245 56.4302 -6.6419 -4.8251 -10.3630 0.0000 -111.4369 141.3570 6.2154 6.9632 -2.1044 0.0000 -172.4081 -79.8464 0.3706 -20.6857 -10.1062 0.0000 -209.8784 7.1457 1.6572 -15.0237 0.0579 0.0000 -64.9257 26.1658 -0.6976 11.1068 0.3842 0.0000 4.1879 119.9269 5.3999 -5.7009 -21.8658 0.0000 -14.3102 88.8550 15.1264 14.8716 1.4499 0.0000 72.0997 53.8668 -2.9550 -6.4286 -2.6204 0.0000 88.9597 -13.6445 -4.5443 3.0617 -23.6305 0.0000 19.3735 72.4546 12.6884 -21.0824 -6.8163 56.8004 65.7039 -3.4582 -16.3304 10.3927 1.5951 -40.5055 76.7790 1.2574 8.7499 13.8095 7.8432 75.0000 -65.3041 -110.1607 10.6807 -1.6936 15.5750 -0.0000 -209.4885 14.6489 0.0000 -2.6096 0.0000 -0.0000 -168.5298 -141.4133 -0.0000 -22.3983 0.0000 0.0000 -96.5926 25.8819 -2.2403 28.2504 1.7406 -75.0000 -65.3041 -110.1607 -6.9473 -16.8641 -17.7455 -0.0000 -209.4885 14.6489 0.0000 17.9192 0.0000 0.0000 -168.5298 -141.4133 -0.0000 -27.5218 -0.0000 -0.0000 -96.5926 25.8819 9.8882 53.3122 -9.9928 0.0000 -22.9100 -124.3991 3.0899 -27.7358 5.2278 -0.0000 0.0000 -67.0000 -1.3824 -19.8739 -4.0605 0.0000 0.0000 -67.0000 -1.9487 15.2927 7.3505 0.0000 0.0000 -67.0000 -0.8121 4.6811 9.8528 0.0000 0.0000 -67.0000 -3.6289 16.7556 12.4070 0.0000 0.0000 -67.0000 -11.2595 12.8995 41.7262 0.0000 0.0000 -67.0000 -6.0235 17.3612 19.4749 
-2582.9500 567.6530 296.3760 4.1903 6.3174 162.8457 0.0000 -16.7008 118.8322 1.2432 14.5255 -10.9380 0.0000 11.8586 169.5859 3.2284 8.6706 -10.6722 47.5065 21.5103 34.5281 11.1332 -6.7566 7.4914 0.0000 -111.4369 141.3570 21.1341 0.0720 2.0835 -0.0000 -172.4081 -79.8464 0.6190 -9.9944 -18.1043 -0.0000 -209.8784 7.1457 7.2044 26.2527 0.2774 -0.0000 -64.9257 26.1658 -20.5479 45.4624 20.2778 -70.2016 13.3828 55.5712 -6.3219 -5.5591 -10.0190 0.0000 -111.4369 141.3570 6.9063 9.6568 -0.0615 -0.0000 -172.4081 -79.8464 0.2624 -23.3778 -6.9874 0.0000 -209.8784 7.1457 2.0666 -14.4977 0.0720 0.0000 -64.9257 26.1658 0.3418 11.6649 -0.1913 0.0000 4.1879 119.9269 5.3109 -6.0081 -21.0512 0.0000 -14.3102 88.8550 14.2611 14.2682 2.4800 -0.0000 72.0997 53.8668 -3.3840 -6.4244 -2.7788 0.0000 88.9597 -13.6445 -4.1052 3.4418 -23.1976 0.0000 19.3735 72.4546 12.8444 -21.7020 -6.1302 56.5367 65.8960 -3.3257 -16.8034 11.6858 1.4818 -40.6427 77.5202 1.7618 8.7354 14.5392 8.0591 75.0000 -65.3041 -110.1607 11.2139 -0.3366 15.7805 0.0000 -209.4885 14.6489 0.0000 -2.1053 -0.0000 0.0000 -168.5298 -141.4133 0.0000 -22.8699 0.0000 0.0000 -96.5926 25.8819 -3.9802 27.3322 3.0487 -75.0000 -65.3041 -110.1607 -7.8914 -17.8857 -18.7892 0.0000 -209.4885 14.6489 -0.0000 16.0879 -0.0000 0.0000 -168.5298 -141.4133 -0.0000 -26.4641 0.0000 -0.0000 -96.5926 25.8819 10.7960 54.4997 -10.9835 -0.0000 -22.9100 -124.3991 3.6423 -27.4835 6.1951 0.0000 0.0000 -67.0000 -1.1374 -19.6709 -3.3755 0.0000 -0.0000 -67.0000 -2.1379 15.4455 7.9791 0.0000 0.0000 -67.0000 -0.8317 4.3683 10.7902 0.0000 0.0000 -67.0000 -3.5583 16.9796 12.0207 0.0000 0.0000 -67.0000 -11.1731 12.8258 41.6619 0.0000 0.0000 -67.0000 -6.0362 17.0152 19.8680 
-2578.4300 567.0120 295.3030 5.2491 6.1249 159.7502 0.0000 -16.7008 118.8322 1.4882 15.2748 -10.7314 0.0000 11.8586 169.5859 3.5980 8.4388 -9.6601 46.1418 18.9258 32.7095 16.8460 -9.9747 5.9413 0.0000 -111.4369 141.3570 14.4109 5.9123 1.3451 -0.0000 -172.4081 -79.8464 0.8428 -13.4042 -24.6594 0.0000 -209.8784 7.1457 1.8095 31.6991 0.0740 0.0000 -64.9257 26.1658 -22.8665 62.9578 24.3432 -71.0483 12.5669 55.3575 -6.0283 -6.3687 -9.8923 0.0000 -111.4369 141.3570 7.9947 11.1734 3.6670 0.0000 -172.4081 -79.8464 0.2105 -22.7852 -5.6290 0.0000 -209.8784 7.1457 2.7400 -14.7211 0.0956 0.0000 -64.9257 26.1658 0.8372 10.5027 -0.4531 -0.0000 4.1879 119.9269 4.7695 -5.9486 -20.4017 0.0000 -14.3102 88.8550 13.5134 13.7032 3.6478 0.0000 72.0997 53.8668 -3.8298 -6.7651 -3.2573 0.0000 88.9597 -13.6445 -3.1890 3.9827 -22.0820 0.0000 19.3735 72.4546 12.9537 -21.9759 -6.4394 56.7264 64.8630 -3.6530 -17.1295 12.2348 1.4839 -40.3866 77.6482 1.8969 8.9986 14.6520 8.0300 75.0000 -65.3041 -110.1607 12.1953 0.7431 15.8598 0.0000 -209.4885 14.6489 -0.0000 -1.3489 -0.0000 -0.0000 -168.5298 -141.4133 0.0000 -22.8498 -0.0000 0.0000 -96.5926 25.8819 -6.4232 25.0721 4.7412 -75.0000 -65.3041 -110.1607 -7.8099 -18.8840 -19.6317 0.0000 -209.4885 14.6489 0.0000 12.5153 -0.0000 -0.0000 -168.5298 -141.4133 -0.0000 -22.2854 0.0000 0.0000 -96.5926 25.8819 7.0549 50.5902 -7.0051 0.0000 -22.9100 -124.3991 4.1858 -27.3883 7.1293 0.0000 0.0000 -67.0000 -0.9607 -19.4389 -2.8845 0.0000 0.0000 -67.0000 -2.3863 15.7659 8.7198 0.0000 -0.0000 -67.0000 -0.7641 3.5745 12.0747 0.0000 0.0000 -67.0000 -3.5303 17.3659 11.6785 -0.0000 -0.0000 -67.0000 -11.2664 13.0185 41.4875 -0.0000 0.0000 -67.0000 -5.8164 15.5604 20.7936 
-2573.4000 565.5650 293.3130 6.8261 5.3920 156.6676 0.0000 -16.7008 118.8322 1.9867 15.6535 -10.2966 0.0000 11.8586 169.5859 3.9247 8.1603 -8.6037 47.6271 14.2813 30.2028 25.3674 -14.8753 3.6933 0.0000 -111.4369 141.3570 2.6628 14.0960 1.1174 0.0000 -172.4081 -79.8464 0.9303 -19.3941 -26.4269 0.0000 -209.8784 7.1457 -5.1116 40.7961 -0.2365 -0.0000 -64.9257 26.1658 -15.9811 67.0269 17.0319 -71.9610 12.0610 55.9775 -5.4809 -6.5695 -10.2199 0.0000 -111.4369 141.3570 9.6186 11.7456 7.8184 -0.0000 -172.4081 -79.8464 0.1838 -20.2416 -5.0072 0.0000 -209.8784 7.1457 2.8019 -17.0143 0.0987 0.0000 -64.9257 26.1658 0.3750 8.8284 -0.1928 -0.0000 4.1879 119.9269 4.5188 -5.7833 -19.8994 0.0000 -14.3102 88.8550 12.5641 13.3332 4.7790 0.0000 72.0997 53.8668 -4.2619 -7.3247 -3.9094 -0.0000 88.9597 -13.6445 -2.2037 4.4273 -20.6020 -0.0000 19.3735 72.4546 12.7408 -21.7655 -7.3719 57.2601 64.0910 -3.9051 -17.4570 11.7095 1.7132 -40.5653 77.2960 1.6648 8.5170 14.2901 8.0367 75.0000 -65.3041 -110.1607 14.0032 1.3623 16.0651 -0.0000 -209.4885 14.6489 0.0000 0.1495 0.0000 0.0000 -168.5298 -141.4133 -0.0000 -22.9011 -0.0000 0.0000 -96.5926 25.8819 -9.1984 22.1593 6.4498 -75.0000 -65.3041 -110.1607 -6.3754 -19.6932 -20.0171 -0.0000 -209.4885 14.6489 0.0000 7.1539 -0.0000 -0.0000 -168.5298 -141.4133 -0.0000 -14.3799 0.0000 -0.0000 -96.5926 25.8819 2.9001 40.3068 -2.6387 0.0000 -22.9100 -124.3991 4.6359 -27.4655 7.8740 -0.0000 0.0000 -67.0000 -0.8853 -19.2000 -2.6902 0.0000 0.0000 -67.0000 -2.5961 16.2690 9.1935 0.0000 0.0000 -67.0000 -0.5469 2.1486 14.2832 0.0000 -0.0000 -67.0000 -3.4748 17.9413 11.1513 0.0000 -0.0000 -67.0000 -11.3160 13.1382 41.3600 -0.0000 0.0000 -67.0000 -5.6603 14.1044 22.1327 
